<svg width="132" height="132" viewBox="0 0 132 132" fill="none" xmlns="http://www.w3.org/2000/svg">
<rect width="132" height="132" fill="black"/>
<path d="M114.199 107.933C111.724 106.008 108.7 104.908 105.812 105.045C106.775 98.5831 104.3 91.9834 99.075 87.8586C94.2628 84.0088 87.9381 82.7714 82.1634 84.6963C81.8884 84.8338 81.6134 84.8338 81.3384 84.9713L92.7503 65.1723C94.6752 65.9972 96.6001 66.5472 98.6625 66.6847L102.375 79.0591C102.65 79.7465 103.2 80.2965 103.887 80.434C104.025 80.434 104.162 80.434 104.3 80.434C104.85 80.434 105.537 80.159 105.812 79.609L114.749 68.3346C118.599 63.5224 119.012 58.0226 115.987 53.8978L117.224 52.3854C131.248 34.7863 127.261 13.6124 127.124 12.6499C126.986 11.6875 126.024 11 124.924 11C123.961 11.1375 101.962 13.1999 86.8381 30.9365C82.1634 28.7366 76.9386 30.249 72.9513 35.3363L64.1518 46.6107C63.7393 47.1607 63.6018 47.9856 63.8768 48.6731C64.1518 49.3606 64.8392 49.773 65.6642 49.9105L78.8635 50.4605C79.551 52.7979 80.9259 55.1353 82.5758 57.3352L57.1396 77.8216C48.3401 71.9094 36.2407 73.5593 29.5035 82.0839C27.0286 85.2463 25.5162 89.0961 25.1037 93.0834C18.6416 92.1209 12.1794 94.7333 8.0546 99.958C6.1297 102.295 5.16725 105.458 4.61728 107.108C3.79232 110.27 3.51733 117.282 5.57973 119.62C5.99221 120.032 6.54218 120.307 7.09215 120.307H116.812C117.362 120.307 117.912 120.032 118.324 119.757C118.737 119.345 118.874 118.795 118.874 118.245C118.874 116.32 117.362 110.545 114.199 107.933ZM82.4384 48.3981C82.3009 47.4357 81.4759 46.7482 80.5135 46.7482L69.789 46.3357L76.1137 38.2236C77.6261 36.4362 81.4759 32.4489 86.1507 35.6113C86.9756 36.1612 88.2131 36.0237 88.9005 35.1988C100.587 20.6245 117.774 16.6372 123.411 15.6748C123.961 21.037 124.649 36.9862 114.062 50.1855L111.862 53.0729C111.174 53.8978 111.312 54.9978 111.999 55.6852C115.162 58.9851 113.924 63.2474 111.587 66.2722L104.987 74.5218L101.962 64.3473C101.687 63.5224 100.862 62.8349 100.037 62.8349C98.3876 62.8349 96.4627 62.4224 94.6752 61.7349C93.4378 61.185 92.2004 60.635 91.1004 59.81C90.2755 59.2601 89.4505 58.5726 88.6255 57.8851C87.5256 57.0602 86.5631 55.9602 85.7382 54.9978C84.0883 52.9354 82.8508 50.598 82.4384 48.3981ZM8.46708 116.182C8.0546 114.532 7.91711 110.82 8.60458 108.07C9.15455 105.87 10.117 103.808 11.2169 102.433C14.9293 97.8956 20.8415 95.8332 26.4787 97.4831C27.1661 97.6206 27.7161 97.4831 28.2661 97.0707C28.8161 96.6582 29.091 96.1082 29.091 95.4207C28.9536 91.5709 30.191 87.7211 32.6659 84.5588C38.3031 77.4092 48.7526 76.3092 55.9022 81.9464C56.5897 82.4964 57.6896 82.4964 58.3771 81.9464L85.1882 60.36C86.2882 61.46 87.5256 62.2849 88.9005 63.2474L73.0888 90.8835C72.5389 91.8459 72.8138 92.9459 73.7763 93.6333C74.6013 94.1833 75.8387 94.0458 76.5262 93.2209C78.3136 91.021 80.6509 89.371 83.4008 88.5461C87.9381 87.1712 92.7503 88.1336 96.6001 91.021C101.275 94.7333 103.2 101.195 101.275 106.97C101 107.658 101.275 108.483 101.687 109.033C102.237 109.583 103.062 109.72 103.75 109.583C106.362 108.758 109.387 109.308 111.724 111.232C112.962 112.195 113.924 114.532 114.474 116.32H8.46708V116.182ZM103.2 39.7361C103.337 39.8735 103.475 40.011 103.75 40.1485C103.612 40.1485 103.337 39.8735 103.2 39.7361ZM103.2 39.7361C103.337 39.8735 103.475 40.011 103.75 40.1485C103.612 40.1485 103.337 39.8735 103.2 39.7361ZM103.2 39.7361C103.337 39.8735 103.475 40.011 103.75 40.1485C103.612 40.1485 103.337 39.8735 103.2 39.7361ZM113.512 27.9116C111.449 26.2617 108.837 25.5743 106.225 25.8493C103.612 26.1242 101.275 27.4992 99.625 29.5616C96.1877 33.8239 96.8751 40.011 101.137 43.4484C102.925 44.9608 105.125 45.6483 107.325 45.6483C108.837 45.6483 110.212 45.3733 111.587 44.6858C112.962 43.9983 114.062 43.1734 115.162 41.9359C118.462 37.5362 117.774 31.349 113.512 27.9116ZM111.999 39.3236C111.862 39.4611 111.724 39.7361 111.587 39.8735C111.312 40.1485 110.899 40.4235 110.487 40.6985C110.074 40.9735 109.799 41.111 109.25 41.2485C109.112 41.2485 108.975 41.386 108.837 41.386C108.7 41.386 108.562 41.386 108.425 41.5235C108.287 41.5235 108.15 41.5235 108.15 41.5235C108.012 41.5235 107.875 41.5235 107.737 41.5235C107.05 41.5235 106.225 41.5235 105.537 41.2485C105.4 41.2485 105.125 41.111 104.987 40.9735C104.85 40.9735 104.712 40.836 104.575 40.6985C104.437 40.561 104.3 40.561 104.162 40.4235C104.025 40.286 103.887 40.286 103.75 40.1485C103.612 40.011 103.337 39.8735 103.2 39.7361C103.062 39.5986 102.925 39.4611 102.787 39.3236C102.65 39.1861 102.512 39.0486 102.512 38.9111C102.512 38.7736 102.375 38.7736 102.375 38.6361C102.375 38.4986 102.237 38.4986 102.237 38.3611C102.237 38.2236 102.1 38.0861 102.1 37.9486C102.1 37.9486 102.1 37.9486 102.1 37.8111C102.1 37.6737 101.962 37.5362 101.962 37.3987V37.2612C101.962 37.1237 101.825 36.9862 101.825 36.8487C101.825 36.7112 101.825 36.5737 101.687 36.2987C101.687 36.0237 101.687 35.8862 101.687 35.6113C101.687 34.3738 102.1 32.9989 102.925 32.0364C103.887 30.799 105.262 29.974 106.775 29.8366C107.05 29.8366 107.187 29.8366 107.462 29.8366C107.737 29.8366 108.15 29.8366 108.425 29.974C108.7 29.974 109.112 30.1115 109.387 30.249C109.937 30.524 110.624 30.799 111.037 31.2115C112.549 32.3114 113.237 34.0988 113.237 35.7488C113.237 36.9862 112.824 38.2236 111.999 39.3236ZM94.9502 109.033L91.2379 110.545C90.138 107.658 87.8006 105.595 84.7757 104.908C82.3009 104.358 79.826 104.77 77.7636 106.145C76.9386 106.695 75.7012 106.42 75.0137 105.595C72.1264 101.745 67.8641 98.9956 63.1893 97.8956C53.1523 95.5582 42.7029 100.92 38.8531 110.545L35.1407 109.033C39.678 97.4831 52.0524 91.021 64.1518 93.9083C69.239 95.1458 73.7763 97.8956 77.2136 101.745C79.826 100.508 82.8508 100.233 85.7382 100.92C89.863 102.02 93.4378 105.045 94.9502 109.033Z" fill="#ECA42E"/>
</svg>
