<svg width="124" height="110" viewBox="0 0 124 110" fill="none" xmlns="http://www.w3.org/2000/svg">
<path d="M110.199 96.9326C107.724 95.0077 104.7 93.9078 101.812 94.0453C102.775 87.5831 100.3 80.9834 95.075 76.8586C90.2628 73.0088 83.9381 71.7714 78.1634 73.6963C77.8884 73.8338 77.6134 73.8338 77.3384 73.9713L88.7503 54.1723C90.6752 54.9972 92.6001 55.5472 94.6625 55.6847L98.3749 68.0591C98.6498 68.7465 99.1998 69.2965 99.8873 69.434C100.025 69.434 100.162 69.434 100.3 69.434C100.85 69.434 101.537 69.159 101.812 68.609L110.749 57.3346C114.599 52.5224 115.012 47.0226 111.987 42.8978L113.224 41.3854C127.248 23.7863 123.261 2.61237 123.124 1.64992C122.986 0.687465 122.024 0 120.924 0C119.961 0.137493 97.9624 2.19989 82.8381 19.9365C78.1634 17.7366 72.9386 19.249 68.9513 24.3363L60.1518 35.6107C59.7393 36.1607 59.6018 36.9856 59.8768 37.6731C60.1518 38.3606 60.8392 38.773 61.6642 38.9105L74.8635 39.4605C75.551 41.7979 76.9259 44.1353 78.5758 46.3352L53.1396 66.8216C44.3401 60.9094 32.2407 62.5593 25.5035 71.0839C23.0286 74.2463 21.5162 78.0961 21.1037 82.0834C14.6416 81.1209 8.1794 83.7333 4.0546 88.958C2.1297 91.2954 1.16725 94.4577 0.617277 96.1077C-0.207681 99.27 -0.482668 106.282 1.57973 108.62C1.99221 109.032 2.54218 109.307 3.09215 109.307H112.812C113.362 109.307 113.912 109.032 114.324 108.757C114.737 108.345 114.874 107.795 114.874 107.245C114.874 105.32 113.362 99.545 110.199 96.9326ZM78.4384 37.3981C78.3009 36.4357 77.4759 35.7482 76.5135 35.7482L65.789 35.3357L72.1137 27.2236C73.6261 25.4362 77.4759 21.4489 82.1507 24.6113C82.9756 25.1612 84.2131 25.0237 84.9005 24.1988C96.5874 9.62451 113.774 5.63722 119.411 4.67477C119.961 10.037 120.649 25.9862 110.062 39.1855L107.862 42.0729C107.174 42.8978 107.312 43.9978 107.999 44.6852C111.162 47.9851 109.924 52.2474 107.587 55.2722L100.987 63.5218L97.9624 53.3473C97.6874 52.5224 96.8624 51.8349 96.0375 51.8349C94.3876 51.8349 92.4627 51.4224 90.6752 50.7349C89.4378 50.185 88.2004 49.635 87.1004 48.81C86.2755 48.2601 85.4505 47.5726 84.6255 46.8851C83.5256 46.0602 82.5631 44.9602 81.7382 43.9978C80.0883 41.9354 78.8508 39.598 78.4384 37.3981ZM4.46708 105.182C4.0546 103.532 3.91711 99.82 4.60458 97.0701C5.15455 94.8702 6.117 92.8078 7.21694 91.4329C10.9293 86.8956 16.8415 84.8332 22.4787 86.4831C23.1661 86.6206 23.7161 86.4831 24.2661 86.0707C24.8161 85.6582 25.091 85.1082 25.091 84.4207C24.9536 80.5709 26.191 76.7211 28.6659 73.5588C34.3031 66.4092 44.7526 65.3092 51.9022 70.9464C52.5897 71.4964 53.6896 71.4964 54.3771 70.9464L81.1882 49.36C82.2882 50.46 83.5256 51.2849 84.9005 52.2474L69.0888 79.8835C68.5389 80.8459 68.8138 81.9459 69.7763 82.6333C70.6013 83.1833 71.8387 83.0458 72.5262 82.2209C74.3136 80.021 76.6509 78.371 79.4008 77.5461C83.9381 76.1712 88.7503 77.1336 92.6001 80.021C97.2749 83.7333 99.1998 90.1955 97.2749 95.9702C96.9999 96.6576 97.2749 97.4826 97.6874 98.0326C98.2374 98.5825 99.0623 98.72 99.7498 98.5825C102.362 97.7576 105.387 98.3075 107.724 100.232C108.962 101.195 109.924 103.532 110.474 105.32H4.46708V105.182ZM99.1998 28.7361C99.3373 28.8735 99.4748 29.011 99.7498 29.1485C99.6123 29.1485 99.3373 28.8735 99.1998 28.7361ZM99.1998 28.7361C99.3373 28.8735 99.4748 29.011 99.7498 29.1485C99.6123 29.1485 99.3373 28.8735 99.1998 28.7361ZM99.1998 28.7361C99.3373 28.8735 99.4748 29.011 99.7498 29.1485C99.6123 29.1485 99.3373 28.8735 99.1998 28.7361ZM109.512 16.9116C107.449 15.2617 104.837 14.5743 102.225 14.8493C99.6123 15.1242 97.2749 16.4992 95.625 18.5616C92.1877 22.8239 92.8751 29.011 97.1374 32.4484C98.9248 33.9608 101.125 34.6483 103.325 34.6483C104.837 34.6483 106.212 34.3733 107.587 33.6858C108.962 32.9983 110.062 32.1734 111.162 30.9359C114.462 26.5362 113.774 20.349 109.512 16.9116ZM107.999 28.3236C107.862 28.4611 107.724 28.7361 107.587 28.8735C107.312 29.1485 106.899 29.4235 106.487 29.6985C106.074 29.9735 105.799 30.111 105.25 30.2485C105.112 30.2485 104.975 30.386 104.837 30.386C104.7 30.386 104.562 30.386 104.425 30.5235C104.287 30.5235 104.15 30.5235 104.15 30.5235C104.012 30.5235 103.875 30.5235 103.737 30.5235C103.05 30.5235 102.225 30.5235 101.537 30.2485C101.4 30.2485 101.125 30.111 100.987 29.9735C100.85 29.9735 100.712 29.836 100.575 29.6985C100.437 29.561 100.3 29.561 100.162 29.4235C100.025 29.286 99.8873 29.286 99.7498 29.1485C99.6123 29.011 99.3373 28.8735 99.1998 28.7361C99.0623 28.5986 98.9248 28.4611 98.7873 28.3236C98.6498 28.1861 98.5123 28.0486 98.5123 27.9111C98.5123 27.7736 98.3749 27.7736 98.3749 27.6361C98.3749 27.4986 98.2374 27.4986 98.2374 27.3611C98.2374 27.2236 98.0999 27.0861 98.0999 26.9486C98.0999 26.9486 98.0999 26.9486 98.0999 26.8111C98.0999 26.6737 97.9624 26.5362 97.9624 26.3987V26.2612C97.9624 26.1237 97.8249 25.9862 97.8249 25.8487C97.8249 25.7112 97.8249 25.5737 97.6874 25.2987C97.6874 25.0237 97.6874 24.8862 97.6874 24.6113C97.6874 23.3738 98.0999 21.9989 98.9248 21.0364C99.8873 19.799 101.262 18.974 102.775 18.8366C103.05 18.8366 103.187 18.8366 103.462 18.8366C103.737 18.8366 104.15 18.8366 104.425 18.974C104.7 18.974 105.112 19.1115 105.387 19.249C105.937 19.524 106.624 19.799 107.037 20.2115C108.549 21.3114 109.237 23.0988 109.237 24.7488C109.237 25.9862 108.824 27.2236 107.999 28.3236ZM90.9502 98.0326L87.2379 99.545C86.138 96.6576 83.8006 94.5952 80.7757 93.9078C78.3009 93.3578 75.826 93.7703 73.7636 95.1452C72.9386 95.6952 71.7012 95.4202 71.0137 94.5952C68.1264 90.7454 63.8641 87.9956 59.1893 86.8956C49.1523 84.5582 38.7029 89.9205 34.8531 99.545L31.1407 98.0326C35.678 86.4831 48.0524 80.021 60.1518 82.9083C65.239 84.1458 69.7763 86.8956 73.2136 90.7454C75.826 89.508 78.8508 89.233 81.7382 89.9205C85.863 91.0204 89.4378 94.0453 90.9502 98.0326Z" fill="#ECA42E"/>
</svg>
